<svg xmlns="http://www.w3.org/2000/svg" width="229.026" height="54.6" viewBox="0 0 229.026 54.6"><defs><style>.a{fill:#3d221b;}.b{fill:#92d500;}</style></defs><g transform="translate(-1192.22 -550.765)"><path class="a" d="M1374.1,576.743h-7.982l-1.134,8.2h8.658l-.32,2.282a2.572,2.572,0,0,1-2.547,2.216h-6.421l-1.3,9.421a2.817,2.817,0,0,1-2.79,2.431h-3.682l3.766-26.869a2.572,2.572,0,0,1,2.548-2.215h14.448l-.768,2.676A2.573,2.573,0,0,1,1374.1,576.743Z" transform="translate(-90.809 -11.845)"></path><path class="a" d="M1418.252,588.144l-2.1,14.626c-.21,1.513-.157,2.95,1.1,3.454l-.327.761a3.29,3.29,0,0,1-6.212-.479c-.006-.024-.011-.047-.017-.071-1.6,2.227-3.76,2.56-6.618,2.56-4.665,0-7.22-3.478-7.22-8.242,0-6.346,3.362-14.836,12.609-14.836A18.425,18.425,0,0,1,1418.252,588.144ZM1403,600.752c0,3.236,1.177,4.329,2.858,4.329,1.807,0,3.236-1.3,4.624-3.32l1.6-11.012a6.458,6.458,0,0,0-2.732-.5C1404.676,590.245,1403,596.255,1403,600.752Z" transform="translate(-113.063 -19.421)"></path><path class="a" d="M1452.507,595.78c-.126,1.073.562,1.863,2.1,1.238l.183.946a3.358,3.358,0,0,1-3.335,3.964h0c-3.572,0-5.422-2.145-4.833-6.189l3.308-20.246a2.793,2.793,0,0,1,2.472-2.36l3.76-.005Z" transform="translate(-140.499 -12.355)"></path><path class="a" d="M1490.291,588.144l-2.1,14.626c-.21,1.513-.063,2.95,1.2,3.454l-.327.761a3.29,3.29,0,0,1-6.213-.479c-.006-.024-.011-.047-.017-.071-1.6,2.227-3.8,2.56-6.661,2.56-4.665,0-7.272-4.646-7.272-8.242,0-6.346,3.363-14.836,12.609-14.836A18.427,18.427,0,0,1,1490.291,588.144Zm-15.257,12.609c0,3.236,1.177,4.329,2.858,4.329,1.808,0,3.236-1.3,4.624-3.32l1.6-11.012a6.459,6.459,0,0,0-2.732-.5C1476.716,590.245,1475.034,596.255,1475.034,600.752Z" transform="translate(-152.865 -19.421)"></path><path class="a" d="M1534.14,594.774H1525.1l-1.889,4.881a2.556,2.556,0,0,1-2.384,1.633h-4.595l12.16-27.41a2.817,2.817,0,0,1,2.575-1.674h5.607l4.707,29.084h-4.139a2.556,2.556,0,0,1-2.541-2.278Zm-.5-4.581-1.471-13.7-5.3,13.7Z" transform="translate(-179.019 -11.845)"></path><path class="a" d="M1595.977,588.144l-2.816,19.291c-1.135,7.691-4.792,10.717-11.39,10.717a16.178,16.178,0,0,1-5.393-1.012,2.808,2.808,0,0,1-1.525-3.9l.74-1.48a12.884,12.884,0,0,0,6.052,1.765c2.564,0,5-.756,5.674-5.38l.336-2.311a7.95,7.95,0,0,1-6.01,3.026c-4.665,0-7.271-3.446-7.271-8.574,0-6.3,3.4-14.374,12.777-14.374A18.467,18.467,0,0,1,1595.977,588.144Zm-15.467,12.02c0,3.194,1.3,4.2,2.942,4.2,1.808,0,3.363-1.387,4.75-3.321l1.6-10.3a6.784,6.784,0,0,0-2.774-.5C1582.276,590.245,1580.51,595.877,1580.51,600.164Z" transform="translate(-211.14 -19.421)"></path><path class="a" d="M1638.79,586.346l-1.681,5.8a5.752,5.752,0,0,0-1.892-.294c-2.08,0-3.5,1.489-4.627,3.812a14.733,14.733,0,0,0-1.3,4.382l-.94,6.631a2.6,2.6,0,0,1-2.578,2.238h-3.623l2.8-20.043a2.59,2.59,0,0,1,2.565-2.232h2.832l-.126,4.245c1.6-3.236,3.908-4.875,6.346-4.875A7.287,7.287,0,0,1,1638.79,586.346Z" transform="translate(-237.534 -19.473)"></path><path class="a" d="M1656.3,599.832c0-5.929,3.026-13.916,12.23-13.916,5.843,0,9.163,3.541,9.121,9.222,0,5.846-2.942,13.916-12.188,13.916C1659.62,609.054,1656.3,605.554,1656.3,599.832Zm15.3-5.106c0-3.088-1.177-4.446-3.447-4.446-4.707,0-5.758,6.423-5.758,9.964,0,3.088,1.177,4.405,3.447,4.405C1670.547,604.649,1671.556,598.267,1671.6,594.726Z" transform="translate(-256.405 -19.421)"></path><path class="b" d="M1254.088,585.891c-1.235-3.931-9.253-29.329-10.435-33.089-.875-2.983-4.492-1.876-6.766-1.651L1197.3,555.82l-2.4.284a2.982,2.982,0,0,0-2.675,2.965c3.461,12.209,9.681,30.773,13.362,42.836.377,3.094,3.778,4.894,5.815,2l.719-1.094,8.587-13.074h30.535A2.992,2.992,0,0,0,1254.088,585.891ZM1199.123,561.6l35.7-4.21-17.333,26.386h-11.373Zm10.681,33.874-1.81-5.74h5.58Zm14.814-11.7,15.24-23.2,7.316,23.2Z" transform="translate(0 0)"></path></g></svg>